<svg width="180" height="180" viewBox="0 0 180 180" fill="none" xmlns="http://www.w3.org/2000/svg">
  <rect width="180" height="180" rx="42" fill="url(#bg)"/>
  <circle cx="132" cy="42" r="18" fill="#BAE6FD" opacity="0.8"/>
  <path d="M47 118V61c0-8.284 6.716-15 15-15h56c8.284 0 15 6.716 15 15v57c0 8.284-6.716 15-15 15H62c-8.284 0-15-6.716-15-15Z" fill="white" opacity="0.96"/>
  <path d="M66 72h48M66 91h36M66 110h24" stroke="#1D4ED8" stroke-width="9" stroke-linecap="round"/>
  <path d="M119 116l20 20" stroke="#0F172A" stroke-width="10" stroke-linecap="round"/>
  <circle cx="111" cy="108" r="23" fill="#DBEAFE" stroke="#0F172A" stroke-width="8"/>
  <path d="M104 108l6 6 12-15" stroke="#16A34A" stroke-width="7" stroke-linecap="round" stroke-linejoin="round"/>
  <defs>
    <linearGradient id="bg" x1="20" y1="17" x2="160" y2="163" gradientUnits="userSpaceOnUse">
      <stop stop-color="#1D4ED8"/>
      <stop offset="0.62" stop-color="#0F766E"/>
      <stop offset="1" stop-color="#0F172A"/>
    </linearGradient>
  </defs>
</svg>
